<?xml version="1.0" encoding="UTF-8" standalone="no"?>
<!-- Created with Inkscape (http://www.inkscape.org/) -->

<svg
   version="1.1"
   id="svg1"
   width="512"
   height="512"
   viewBox="0 0 512 512"
   xmlns="http://www.w3.org/2000/svg"
   xmlns:svg="http://www.w3.org/2000/svg">
  <defs
     id="defs1" />
  <g
     id="g1">
    <path
       style="fill:#000000;stroke-width:0.622479"
       d="M 126.81864,460.76171 C 117.66592,460.05202 106.88051,457.85684 97.873397,454.8704 78.334237,448.39193 65.21971,441.41422 50.566209,429.70017 47.141445,426.96242 33.461418,413.26547 30.277186,409.38608 24.756891,402.66063 17.758586,391.66549 13.491791,383.01431 7.3568726,370.57539 3.0552374,356.56481 0.68689346,341.30826 -0.04913251,336.56688 -0.26427489,312.5356 0.39153877,308.3169 0.55119914,307.28981 0.97922305,304.34861 1.3427071,301.78088 5.5285775,272.21055 22.368149,241.34395 44.894939,221.9505 c 16.294697,-14.0282 32.38685,-23.38161 50.335209,-29.25687 4.866832,-1.59311 5.953562,-2.19842 7.006992,-3.90291 1.94958,-3.1545 6.47301,-6.9877 9.10999,-7.7199 3.52449,-0.97866 6.01062,-0.82649 9.59774,0.58743 l 3.19826,1.26064 2.49583,-2.25485 c 3.21485,-2.90442 5.90903,-4.0013 9.82809,-4.0013 3.62487,0 6.33936,0.98799 9.09193,3.30921 l 1.93341,1.63044 1.49022,-1.59668 c 4.12776,-4.42269 10.01517,-5.3018 15.8805,-2.37127 4.09919,2.0481 5.72756,4.08008 7.31557,9.12879 1.0477,3.33088 1.11778,3.399 4.61846,4.48915 8.75921,2.72772 26.2083,10.44628 31.56616,13.96317 0.34236,0.22473 4.61412,0.31376 9.49279,0.19785 l 8.87032,-0.21075 v -3.99906 -3.99906 h -7.33896 c -11.38054,0 -16.65684,-1.84296 -22.10229,-7.72009 -4.26316,-4.60113 -6.6625,-10.91002 -6.6625,-17.51866 v -3.84851 l -2.80313,-0.38422 c -3.35906,-0.46041 -7.00569,-2.23393 -8.71271,-4.2374 -2.99847,-3.51917 -3.10343,-4.04445 -3.31611,-16.59633 -0.17576,-10.37274 -0.0491,-12.45263 0.92245,-15.15457 1.82763,-5.08246 5.25418,-7.76346 10.7551,-8.41496 l 3.00345,-0.35572 0.30912,-4.74643 c 0.43659,-6.70383 2.40444,-11.31917 6.66539,-15.6328 1.89604,-1.91946 4.98797,-4.316945 6.87097,-5.327727 l 3.42364,-1.837786 23.18731,-0.190349 23.18731,-0.190349 v -8.284652 -8.284638 l -2.95677,-1.510746 c -7.13746,-3.64683 -9.64838,-13.367522 -5.18659,-20.079242 1.65006,-2.482132 5.79744,-5.154486 8.78214,-5.65875 8.4443,-1.426648 16.47304,5.114794 16.42956,13.38604 -0.0283,5.399966 -2.81321,9.948344 -7.57554,12.372935 l -2.64554,1.346891 v 8.362153 8.362157 l 22.87609,0.184275 22.87607,0.184275 3.4249,1.735498 c 4.31124,2.184654 9.59407,7.235355 11.4982,10.992995 1.55905,3.07663 2.81753,8.70286 2.81753,12.5962 0,2.32771 0.0471,2.37586 2.33431,2.38925 4.74178,0.0278 9.08744,3.06306 11.13277,7.77581 1.39399,3.21199 2.0162,22.38135 0.87398,26.92572 -1.3896,5.52865 -5.51294,9.06244 -11.53791,9.88825 l -2.80315,0.38422 -0.0108,3.1834 c -0.0158,4.63553 -1.58833,11.33092 -3.3791,14.38664 -2.24305,3.82745 -7.30746,8.12211 -11.42406,9.68764 -2.77846,1.05666 -5.40769,1.42074 -12.10822,1.67673 -5.58241,0.21326 -8.58861,0.5673 -8.644,1.01801 -0.90786,7.38768 -1.09253,7.22706 8.30921,7.22706 h 8.14036 l 7.3468,-3.71314 c 9.23949,-4.66976 13.46644,-6.47639 21.95558,-9.38397 l 6.76212,-2.31607 1.03056,-3.04417 c 1.95071,-5.76225 5.60293,-9.27098 11.22625,-10.78518 3.40051,-0.91567 8.48759,0.47759 11.5449,3.16195 l 2.16145,1.89777 2.04305,-1.51715 c 6.02943,-4.47743 14.65258,-3.56878 19.37324,2.04139 1.497,1.77909 1.72618,1.85819 3.03786,1.04834 7.00652,-4.32599 16.60799,-1.59009 20.11749,5.7324 0.67128,1.4006 1.56865,2.54976 1.99417,2.55368 1.47936,0.0136 18.55232,7.00927 23.19175,9.50278 7.64026,4.10633 12.64796,7.14221 14.56943,8.83257 0.99477,0.87511 2.02379,1.5911 2.28678,1.5911 0.72613,0 13.50865,10.31068 17.26942,13.92991 9.1231,8.77983 18.27877,21.31483 26.05265,35.66879 3.17177,5.85652 9.64424,23.99657 11.37398,31.87727 4.42496,20.16056 4.43204,45.03128 0.018,62.31652 -4.49075,17.58462 -12.57009,35.89235 -20.19077,45.75216 -1.05847,1.36944 -2.71681,3.71865 -3.68526,5.22043 -3.30506,5.12527 -13.97651,16.55194 -20.92149,22.40212 -1.8797,1.58339 -4.26068,3.64993 -5.29106,4.59233 -1.03041,0.94239 -2.43366,1.89196 -3.11838,2.11018 -0.68474,0.21822 -2.78604,1.6047 -4.66957,3.08109 -5.45611,4.27674 -17.67179,10.67163 -26.12946,13.67875 -4.28704,1.52427 -9.19521,3.32212 -10.90702,3.99525 -10.39472,4.08745 -32.05684,6.35964 -48.52349,5.08972 -11.51269,-0.88786 -17.701,-2.17693 -30.53126,-6.35994 -17.13581,-5.58673 -33.61297,-14.5551 -49.59643,-26.99488 -6.80785,-5.2985 -18.04062,-15.30077 -23.70716,-21.11013 l -5.45343,-5.5909 -3.32971,3.67785 c -3.62009,3.9986 -11.41317,11.64336 -14.39741,14.12344 -1.0271,0.85356 -2.86673,2.49399 -4.08808,3.6454 -3.33063,3.13987 -14.52514,11.56777 -17.25523,12.99078 -1.31752,0.68673 -3.01193,1.82289 -3.76534,2.52479 -4.12778,3.84561 -19.61729,11.45308 -32.43272,15.92891 -10.56594,3.69018 -15.11712,4.9085 -23.06958,6.17549 -5.35281,0.85283 -25.08743,1.58125 -30.81267,1.13733 z m 28.39272,-20.40092 c 6.32616,-1.05027 21.20751,-5.43792 26.07413,-7.68774 1.883,-0.87051 4.82573,-2.21182 6.53939,-2.98072 18.62204,-8.35539 41.32333,-27.07809 62.82389,-51.81347 3.0503,-3.50922 5.75518,-6.3804 6.01087,-6.3804 0.25569,0 2.35601,2.451 4.66741,5.44667 5.07903,6.58265 19.74257,21.75686 27.02471,27.96585 8.42392,7.18253 9.47154,8.03494 13.71966,11.16341 14.04866,10.3459 26.08525,16.29811 43.14066,21.3335 28.95557,8.54876 59.67841,4.73104 86.89264,-10.79756 36.99177,-21.10769 61.04084,-61.34173 61.03362,-102.10899 0,-14.42184 -1.47907,-23.34276 -6.2501,-37.76311 -4.40765,-13.32191 -7.31431,-19.09312 -16.69711,-33.15295 -3.68022,-5.51469 -16.33029,-18.6656 -22.86614,-23.77141 -5.41605,-4.23105 -19.51033,-12.97465 -23.58996,-14.6344 -9.79871,-3.98648 -10.88636,-4.24305 -10.88993,-2.56861 -10e-4,0.59914 -0.56251,2.00812 -1.24718,3.13108 -1.16771,1.91524 -1.1772,2.06579 -0.15328,2.42995 35.70988,12.69989 62.26635,42.60536 72.03483,81.11909 3.12317,12.31358 3.08619,35.04075 -0.0774,47.58316 -2.38378,9.45045 -6.41875,19.88976 -10.96147,28.35918 -16.79467,31.31228 -49.52482,54.26096 -83.48531,58.5356 -7.92948,0.99809 -27.59666,0.44701 -33.99833,-0.95265 -13.91935,-3.04331 -32.61387,-11.09041 -44.20033,-19.02613 -15.3165,-10.49046 -40.35515,-34.35822 -47.77628,-45.54206 l -1.53726,-2.31668 2.36036,-3.28563 c 2.34852,-3.26915 3.47013,-4.65864 16.21893,-20.09256 9.09316,-11.00836 11.68749,-14.00509 12.1248,-14.00545 0.20449,-1.8e-4 2.41924,2.56028 4.92168,5.6899 10.02488,12.53726 31.99481,33.00817 43.06841,40.12982 13.14087,8.45116 23.64198,11.39491 37.81603,10.60088 11.98213,-0.67123 19.59398,-3.15268 29.84796,-9.73031 9.59083,-6.15225 19.3765,-18.39675 23.93197,-29.94527 2.07188,-5.25245 3.51844,-14.18434 3.51844,-21.72516 0,-16.83509 -5.34133,-30.81276 -16.46136,-43.07767 -19.04024,-21.00056 -49.94467,-25.85075 -74.02749,-11.61799 -3.98686,2.35621 -8.06455,5.34601 -16.57242,12.15104 -11.72422,9.37762 -30.61664,28.62392 -42.49824,43.29426 -3.15912,3.90058 -9.24527,11.31902 -13.5248,16.48542 -4.27955,5.16641 -11.98272,14.52687 -17.11817,20.80104 -21.07721,25.75075 -35.34881,39.70886 -52.91066,51.74843 -11.33166,7.76843 -18.29782,11.28244 -29.97746,15.12172 -14.75927,4.85162 -19.13838,5.55318 -34.76027,5.56875 -10.82151,0.0107 -14.86985,-0.22416 -19.29684,-1.11989 -11.264,-2.27909 -24.161479,-7.32301 -37.566359,-14.69141 C 68.486844,411.6073 51.585275,395.13735 43.240143,381.88636 36.677519,371.46578 30.149881,355.29668 27.411151,342.67765 c -1.173914,-5.40899 -1.379702,-8.28501 -1.38962,-19.42126 -0.01348,-15.07854 0.775102,-19.8591 5.624698,-34.10018 8.764288,-25.73674 24.442762,-45.68614 47.541901,-60.49266 5.294228,-3.3936 12.35714,-7.18236 13.389138,-7.18236 0.211521,0 1.598221,-0.5529 3.081556,-1.22864 1.483355,-0.67573 3.992683,-1.57515 5.576276,-1.9987 1.58361,-0.42355 2.8056,-0.92241 2.71555,-1.10858 -0.09,-0.18619 -0.692,-1.66774 -1.33764,-3.29236 -0.75571,-1.90158 -1.55014,-2.95386 -2.23005,-2.95386 -2.76387,0 -18.389114,7.31741 -24.479599,11.46397 -1.299062,0.88444 -2.542151,1.60807 -2.76241,1.60807 -0.220263,0 -1.958546,1.20197 -3.862843,2.67104 -1.904305,1.46908 -4.216178,3.14539 -5.137494,3.72518 -3.43948,2.16443 -16.289635,15.20115 -20.407367,20.70365 -5.374258,7.18158 -7.744343,10.91273 -11.650574,18.34105 -4.093904,7.7852 -5.810362,12.22516 -8.783572,22.72045 -6.844654,24.16132 -6.689622,40.56509 0.60598,64.11528 2.780472,8.97532 9.835638,25.14159 11.22853,25.7291 0.27056,0.11412 0.491926,0.47027 0.491926,0.79144 0,2.26968 10.950418,16.29514 18.774082,24.04612 10.743888,10.6441 20.250656,17.28728 33.825331,23.63666 11.85278,5.54399 21.97494,8.42992 38.59366,11.00342 3.53095,0.5468 23.03742,-0.20461 28.39272,-1.09369 z m -1.66452,-57.32482 c 13.04935,-3.84723 26.84576,-13.06934 43.07021,-28.78997 8.14552,-7.89257 12.12748,-12.40448 27.89917,-31.61209 11.72848,-14.28361 17.22272,-20.83436 24.70798,-29.4592 2.17664,-2.50804 4.79788,-5.64046 5.82497,-6.96091 7.45346,-9.58242 29.63211,-32.46923 39.83862,-41.11066 15.46968,-13.09754 26.15408,-19.94109 38.82698,-24.86938 6.1731,-2.40061 8.70385,-3.66847 8.48377,-4.25018 -0.17249,-0.45595 -0.31363,-2.06661 -0.31363,-3.57925 0,-1.6771 -0.28278,-2.75024 -0.7247,-2.75024 -0.39858,0 -3.97006,1.30493 -7.9366,2.89986 -8.01118,3.22123 -18.8389,9.18185 -25.95919,14.29043 -2.56922,1.84333 -4.82406,3.3515 -5.01076,3.3515 -0.43582,0 -4.06174,2.8372 -11.10075,8.68609 -7.89088,6.55676 -22.35361,20.8599 -29.45446,29.12947 -3.30726,3.85158 -6.21097,7.00288 -6.45272,7.00288 -0.24176,0 -2.7967,-2.73113 -5.67764,-6.06918 -7.02341,-8.13774 -16.01644,-17.84182 -19.94595,-21.52303 -13.54074,-12.68505 -22.0656,-19.34963 -33.79268,-26.41849 -7.84317,-4.72773 -9.36702,-5.50253 -15.78464,-8.02587 -7.31057,-2.87442 -7.47403,-2.84453 -7.47403,1.36706 v 3.44574 l 2.95677,1.25698 c 1.62623,0.69135 4.07724,1.72683 5.4467,2.30108 8.6868,3.64258 18.54944,9.93213 30.1902,19.25273 7.71376,6.17632 21.77807,19.73308 27.30615,26.32076 1.58014,1.88299 4.27604,5.0106 5.9909,6.95024 1.71486,1.93963 3.64854,4.52382 4.29706,5.74265 l 1.17914,2.21606 -3.98029,4.25441 c -2.18915,2.33994 -8.8823,10.32632 -14.87366,17.74755 l -10.89338,13.49313 -3.68955,-4.19338 c -5.80762,-6.60065 -25.61947,-26.12482 -31.79171,-31.33002 -14.46741,-12.20075 -23.11966,-16.97899 -36.10374,-19.93843 -18.15984,-4.13913 -39.75744,2.70159 -53.717563,17.01425 -9.816577,10.06446 -15.578915,21.01953 -17.612738,33.48445 -0.879718,5.39162 -0.874321,18.04363 0.0097,22.83838 2.141498,11.61449 9.845676,25.27071 19.089501,33.83751 5.95628,5.52004 16.46887,11.61764 23.9083,13.86749 9.12516,2.75965 24.14486,2.81817 33.26422,0.12958 z M 260.35823,241.03135 c 4.03661,-4.11267 15.47173,-14.41142 21.62784,-19.4786 2.81285,-2.31529 4.97171,-3.81447 12.37557,-8.59403 0.89548,-0.57808 -7.35724,-0.74238 -37.44504,-0.74546 -36.48799,-0.004 -38.51001,0.0538 -37.06059,1.05274 4.73757,3.26545 19.6065,16.08015 27.12597,23.37834 4.77932,4.63869 8.83783,8.44681 9.01889,8.46249 0.18107,0.0158 2.14189,-1.81829 4.35736,-4.07548 z m -97.21289,-17.013 c 2.81766,-1.50798 3.20067,-3.85616 3.20067,-19.62273 0,-16.25291 -0.41708,-18.52315 -3.85243,-20.96933 -2.58044,-1.83743 -6.25493,-1.30045 -8.85024,1.29338 l -1.92556,1.92444 -0.19129,15.70671 c -0.10522,8.63871 -0.0283,16.58571 0.17075,17.66002 0.42215,2.27782 2.95042,5.03885 4.8926,5.34303 1.71289,0.26828 4.6933,-0.33892 6.5555,-1.33552 z m 196.78456,0.26754 c 3.68716,-1.90672 3.74174,-2.19524 3.74174,-19.78105 0,-17.42044 -0.14798,-18.307 -3.49514,-20.93988 -3.69308,-2.90497 -9.40994,-0.69623 -10.85182,4.19264 -0.43192,1.46448 -0.60405,7.96635 -0.47809,18.05806 l 0.19681,15.76964 2.03288,1.81537 c 2.33823,2.08807 5.84879,2.43908 8.85362,0.88522 z m -219.78396,-4.28127 c 0.82512,-0.38616 2.08563,-1.49217 2.80115,-2.45781 1.20208,-1.62226 1.31627,-2.72378 1.5027,-14.49481 0.19995,-12.6252 0.18789,-12.7628 -1.349,-15.38531 -2.40396,-4.10204 -5.57304,-5.30662 -9.4496,-3.59182 -4.39015,1.94197 -4.65402,2.95838 -4.65291,17.92295 0.001,14.5879 0.395,16.26063 4.31522,18.32437 2.1688,1.14171 3.88482,1.06197 6.83244,-0.31757 z m 243.10905,-0.84717 c 2.3814,-2.3814 2.81862,-5.08613 2.82239,-17.45996 0.004,-12.34837 -0.35524,-14.1425 -3.39035,-16.94253 -2.03287,-1.87542 -6.18441,-2.04593 -8.75796,-0.35966 -2.99786,1.96427 -3.41039,4.13405 -3.40783,17.92468 0.002,11.755 0.0931,12.77534 1.32027,14.80385 1.4565,2.40769 2.57194,3.26109 4.90217,3.75045 2.57233,0.54021 4.85654,-0.062 6.51131,-1.71683 z m -262.81675,-5.73987 1.71181,-1.9157 v -9.90206 c 0,-9.71622 -0.03,-9.93763 -1.59372,-11.7961 -2.87941,-3.422 -8.8799,-3.15073 -11.03579,0.49892 -1.46929,2.48731 -1.56298,19.07279 -0.12347,21.8565 2.14526,4.14845 7.87514,4.80153 11.04117,1.25844 z m 282.52936,1.48629 c 3.18177,-1.64534 4.25365,-5.02724 4.22872,-13.342 -0.0119,-3.93717 -0.35581,-8.1292 -0.76444,-9.31562 -0.85261,-2.47549 -4.18356,-5.00186 -6.59294,-5.0004 -2.88257,0.002 -5.91155,1.97578 -6.68437,4.35637 -0.91621,2.82228 -1.09471,15.44986 -0.26213,18.54186 1.28962,4.78924 5.85102,6.94419 10.07516,4.75979 z M 307.67935,188.4258 c 2.09658,-0.98335 4.24099,-2.61336 5.45551,-4.14682 4.02843,-5.0863 3.91664,-3.99113 3.9069,-38.27641 l -0.008,-31.16746 -1.5983,-3.2668 c -2.08741,-4.26652 -5.64088,-7.41998 -9.72934,-8.63411 -4.90493,-1.45662 -91.42742,-1.45662 -96.33237,0 -4.26878,1.26768 -7.90864,4.6093 -10.13225,9.30204 l -1.76973,3.73486 0.005,30.1902 0.005,30.1902 1.49225,3.11239 c 1.55076,3.23442 4.28581,6.43722 7.03585,8.23911 3.73811,2.4493 6.85825,2.5934 53.39633,2.46585 l 44.8184,-0.12283 z m -75.5654,-14.14636 c -1.33898,-1.47957 -1.30437,-2.77793 0.10816,-4.05625 1.0183,-0.92155 3.69956,-1.03018 25.42513,-1.03018 22.7381,0 24.35248,0.0726 25.31697,1.13834 1.21023,1.33727 1.33738,3.28531 0.28323,4.33947 -0.55586,0.55586 -7.06098,0.74696 -25.42514,0.74696 -23.11725,0 -24.74332,-0.072 -25.70835,-1.13834 z m -8.77739,-20.44179 c -4.08975,-1.16433 -8.33928,-5.47791 -9.98122,-10.13164 -1.20433,-3.41344 -1.1927,-5.47922 0.0518,-9.19442 2.15696,-6.43928 7.14694,-10.12262 13.84124,-10.21685 8.94423,-0.12592 15.5839,7.07877 14.92452,16.19459 -0.54914,7.59178 -6.13268,13.08773 -13.70139,13.48643 -2.15806,0.11368 -4.4688,0.0515 -5.13494,-0.13811 z m 8.73463,-8.08003 c 5.62033,-3.68258 3.76695,-12.75272 -2.97696,-14.56866 -4.60675,-1.24048 -9.20775,2.5996 -9.21275,7.68914 -0.002,2.78339 1.30324,5.57412 3.24501,6.93418 1.84126,1.28967 6.94056,1.25851 8.9447,-0.0547 z m 48.76101,6.95256 c -4.98098,-2.59512 -8.04239,-7.69034 -8.04239,-13.38522 0,-6.50426 2.64639,-10.74519 8.40345,-13.46684 5.33711,-2.52312 11.40492,-1.7402 15.8232,2.04167 3.54002,3.03014 5.02983,6.52527 5.02983,11.80015 0,3.72564 -0.25551,4.7475 -1.77974,7.1176 -2.39259,3.7204 -4.2683,5.34179 -7.4978,6.48122 -3.97806,1.40354 -8.5452,1.17833 -11.93655,-0.58858 z m 9.98543,-6.2252 c 5.631,-2.91191 5.98731,-11.07554 0.62174,-14.24506 -5.3812,-3.17876 -11.8023,0.96583 -11.8023,7.61792 0,5.33895 6.37009,9.11473 11.18056,6.62714 z m -100.19497,-0.94615 v -15.56197 h -1.5871 c -2.417,0 -4.99958,1.603 -5.83605,3.62242 -0.5177,1.24982 -0.6901,5.20647 -0.55454,12.72659 0.17807,9.8782 0.31476,11.04396 1.44167,12.2949 1.423,1.57962 3.11481,2.38363 5.13545,2.44056 l 1.40057,0.0395 z m 138.87382,14.5698 c 2.00006,-0.55633 2.42877,-3.1967 2.42877,-14.95821 v -11.53444 l -1.81955,-1.81956 c -1.22261,-1.22261 -2.44791,-1.81956 -3.73488,-1.81956 h -1.91532 v 15.61143 15.61141 l 2.02306,-0.40717 c 1.11268,-0.22393 2.47075,-0.5317 3.01792,-0.6839 z m -66.9497,-90.538353 c 4.48466,-4.213108 1.06291,-11.80089 -5.32165,-11.80089 -2.1402,0 -2.99378,0.382088 -4.72812,2.116418 -6.51126,6.511262 3.33136,15.996106 10.04977,9.684472 z"
       id="path1" />
  </g>
</svg>
